<?xml version="1.0" encoding="UTF-8"?>
<!-- 2018-07-14 18:33:11 Generated by QCAD SVG Exporter -->
<svg width="6.90625in" height="6.796875in" viewBox="-24 -48.125 55.25 54.375" version="1.1" xmlns="http://www.w3.org/2000/svg" style="stroke-linecap:round;stroke-linejoin:round;fill:none">
    <g transform="scale(1,-1)">
        <!-- Line -->
        <!-- Line -->
        <!-- Line -->
        <!-- Line -->
        <!-- Line -->
        <path d="M1.5e-15,32.25 L12,36 " style="stroke:#000000;stroke-width:0.07874015748031496;"/>
        <!-- Line -->
        <path d="M1.5e-15,32.25 L-11.99999999999999,36.00000000000002 " style="stroke:#000000;stroke-width:0.07874015748031496;"/>
        <!-- Line -->
        <path d="M12,36 L24,24 " style="stroke:#000000;stroke-width:0.07874015748031496;"/>
        <!-- Line -->
        <path d="M-11.99999999999999,36.00000000000002 L-24,24.00000000000002 " style="stroke:#000000;stroke-width:0.07874015748031496;"/>
        <!-- Line -->
        <path d="M24,24 L10.5,0 " style="stroke:#000000;stroke-width:0.07874015748031496;"/>
        <!-- Line -->
        <path d="M-24,24.00000000000002 L-10.50000000000001,0 " style="stroke:#000000;stroke-width:0.07874015748031496;"/>
        <!-- Line -->
        <path d="M-10.50000000000001,0 L0,4.5 " style="stroke:#000000;stroke-width:0.07874015748031496;"/>
        <!-- Line -->
        <path d="M10.5,0 L0,4.5 " style="stroke:#000000;stroke-width:0.07874015748031496;"/>
        <!-- Line -->
        <path d="M-12,36 L-10.50000000000001,0 " style="stroke:#800000;stroke-width:0.07874015748031496;"/>
        <!-- Line -->
        <path d="M12.00000000000001,36 L10.5,0 " style="stroke:#800000;stroke-width:0.07874015748031496;"/>
        <!-- Block Reference: papertape / entities: 2 -->
        <g/>
        <!-- Block Reference: papertape / entities: 2 -->
        <g/>
        <!-- Aligned Dimension -->
        <g>
            <path d="M2.433448296087464e-15,40 L2.500000000000002,40.41628465777284 L2.500000000000002,39.58371534222716 Z" style="stroke:#a0a0a4;stroke-width:0.07874015748031496;fill:#a0a0a4;fill-rule:evenodd;"/>
            <path d="M12,40 L9.5,39.58371534222716 L9.5,40.41628465777284 Z" style="stroke:#a0a0a4;stroke-width:0.07874015748031496;fill:#a0a0a4;fill-rule:evenodd;"/>
            <g>
                <path d="M4.750000000000001,42.56944444444444 L5.305555555555556,43.125 L5.305555555555556,40.625" style="stroke:#a0a0a4;stroke-width:0.07874015748031496;"/>
                <path d="M7.250000000000001,40.625 L6.138888888888889,40.625 L7.212500000000001,42.47138888888889 M7.212298556098252,42.47110557038049 L7.212323324936278,42.47105802383923 C7.236279689349928,42.51212647014931 7.250000000000001,42.559877626614 7.250000000000001,42.61083333333333 C7.250000000000001,42.64515119811355 7.243776727709346,42.67801553976938 7.232414628528495,42.70831278946282 M7.232352766945803,42.70835668973771 L7.2324589699599695,42.70848322370433 C7.17064588307584,42.94809395426831 6.953204474192515,43.125 6.6944444444444455,43.125 C6.435699491798389,43.125 6.21826834515511,42.948114569142994 6.156516005060856,42.70881687188252" style="stroke:#a0a0a4;stroke-width:0.07874015748031496;"/>
            </g>
            <path d="M2.2382702124733546e-15,36.8125 L2.5099887210341736e-15,41.25 M12,36.8125 L12,41.25 M2.433448296087464e-15,40 L12,40 " style="stroke:#a0a0a4;stroke-width:0.07874015748031496;"/>
        </g>
        <!-- Aligned Dimension -->
        <g>
            <path d="M3.061616997868383e-16,-5 L2.5000000000000004,-4.58371534222716 L2.5000000000000004,-5.416284657772841 Z" style="stroke:#a0a0a4;stroke-width:0.07874015748031496;fill:#a0a0a4;fill-rule:evenodd;"/>
            <path d="M10.5,-5 L8,-5.416284657772841 L8,-4.583715342227159 Z" style="stroke:#a0a0a4;stroke-width:0.07874015748031496;fill:#a0a0a4;fill-rule:evenodd;"/>
            <g>
                <path d="M2.6111111111111116,-2.430555555555556 L3.166666666666667,-1.875 L3.166666666666667,-4.375" style="stroke:#a0a0a4;stroke-width:0.07874015748031496;"/>
                <path d="M4.810174887418057,-2.013938287550474 L4.810201898164686,-2.013912598275711 C4.75630187209658,-1.9303322472158353 4.662390483221369,-1.875 4.555555555555556,-1.875 C4.4487918934449056,-1.875 4.354934534263824,-1.9302584517222736 4.301030444727169,-2.013724744952814 M4.30130139756122,-2.0130812737594703 L4.301256035840783,-2.013009358529021 C4.180525685396184,-2.1741322349602026 4.095374922101158,-2.3634227702109505 4.057513261693809,-2.5688395983836796 M4.057632476179899,-3.680506648754239 L4.057437122106007,-3.6807476757541586 C4.095490258162199,-3.8868383174296004 4.180613034940211,-4.075990249443507 4.3012418788981215,-4.23697174841344 M4.301050667274918,-4.2362394303356075 L4.301023800293885,-4.236264967114753 C4.354942245922138,-4.319746088404846 4.4487962794758165,-4.375 4.555555555555556,-4.375 C4.662319217666207,-4.375 4.756176576847288,-4.319741548277726 4.810080666383944,-4.236275255047186 M4.809698602438782,-4.23691872624053 L4.809743964159218,-4.236990641470979 C4.930474314603818,-4.075867765039797 5.015625077898843,-3.8865772297890504 5.0534867383061925,-3.6811604016163213 M5.05306981714297,-3.6812396066973463 L5.053343459455087,-3.682541317335973 C5.091248712821768,-3.5050137759753732 5.111111111111112,-3.321631999387101 5.111111111111112,-3.133611111111111 C5.111111111111112,-3.130729595030729 5.111106446004414,-3.1278491685443965 5.11109727119317,-3.125015749743521 M5.111095194867088,-3.125508215711161 L5.111095363973404,-3.1255573110301613 C5.111105914834846,-3.1224699546706542 5.111111111111112,-3.119430028607447 5.111111111111112,-3.1163888888888893 C5.111111111111112,-2.9282535508374385 5.0912245246699435,-2.7447629739192667 5.053602930188794,-2.5686735283096302 M5.0533250426849685,-2.569264255128121 L5.053520590460552,-2.5690230088102073 C5.015490498520215,-2.3632592515329547 4.930539211285737,-2.1743879089140066 4.810177089291559,-2.0135876971448434 M4.000015916244023,-3.124491784288839 L4.000015747137708,-3.1244426889698396 C4.000005196276266,-3.1275300453293475 4,-3.1305699713925543 4,-3.133611111111111 C4,-3.3219045604317303 4.019920026354221,-3.5055454383088955 4.057603407258188,-3.6817726532660826 M4.058041293968142,-2.568760393302655 L4.057767651656024,-2.567458682664029 C4.019862398289344,-2.744986224024628 4,-2.9283680006129 4,-3.1163888888888893 C4,-3.119446259090209 4.0000052518890525,-3.122502402647116 4.000015580434467,-3.1255086586841827" style="stroke:#a0a0a4;stroke-width:0.07874015748031496;"/>
                <path d="M5.944444444444445,-4.375 L5.944444444444445,-4.236111111111111" style="stroke:#a0a0a4;stroke-width:0.07874015748031496;"/>
                <path d="M7.888888888888888,-1.875 L6.777777777777778,-1.875 L6.777777777777778,-2.986111111111111 L7.333333333333334,-2.986111111111111 M7.888888888888888,-3.541666666666667 C7.888888888888888,-3.2348418056666666 7.640158194333334,-2.986111111111111 7.333333333333334,-2.986111111111111 M7.888888888888888,-3.541666666666667 L7.888888888888888,-3.8194444444444446 M7.333333333333333,-4.375 C7.640158194333334,-4.375 7.888888888888888,-4.126269305444445 7.888888888888888,-3.8194444444444446 M7.333333333333334,-4.375 L6.777777777777778,-4.375" style="stroke:#a0a0a4;stroke-width:0.07874015748031496;"/>
            </g>
            <path d="M3.827021247335479e-17,-0.625 L3.827021247335479e-16,-6.25 M10.5,-0.625 L10.5,-6.25 M3.061616997868383e-16,-5 L10.5,-5 " style="stroke:#a0a0a4;stroke-width:0.07874015748031496;"/>
        </g>
        <!-- Rotated Dimension -->
        <g>
            <path d="M0,45 L2.5,45.41628465777284 L2.5,44.58371534222716 Z" style="stroke:#a0a0a4;stroke-width:0.07874015748031496;fill:#a0a0a4;fill-rule:evenodd;"/>
            <path d="M24,45 L21.5,44.58371534222716 L21.5,45.41628465777284 Z" style="stroke:#a0a0a4;stroke-width:0.07874015748031496;fill:#a0a0a4;fill-rule:evenodd;"/>
            <g>
                <path d="M11.444444444444445,45.625 L10.333333333333334,45.625 L11.406944444444445,47.47138888888889 M11.406743000542695,47.47110557038049 L11.406767769380721,47.47105802383923 C11.43072413379437,47.51212647014931 11.444444444444445,47.559877626614 11.444444444444445,47.61083333333333 C11.444444444444445,47.64515119811355 11.43822117215379,47.67801553976938 11.42685907297294,47.70831278946282 M11.426797211390246,47.70835668973771 L11.426903414404414,47.70848322370433 C11.365090327520285,47.94809395426831 11.147648918636959,48.125 10.88888888888889,48.125 C10.630143936242833,48.125 10.412712789599555,47.948114569142994 10.3509604495053,47.70881687188252" style="stroke:#a0a0a4;stroke-width:0.07874015748031496;"/>
                <path d="M13.25,45.625 L13.25,46.736111111111114 M13.666666666666666,46.18055555555556 L12.277777777777779,46.18055555555556 L12.833333333333332,48.125" style="stroke:#a0a0a4;stroke-width:0.07874015748031496;"/>
            </g>
            <path d="M0,45 L24,45 M3.827021247335479e-17,32.875 L7.654042494670958e-17,46.25 M24,24.625 L24,46.25 " style="stroke:#a0a0a4;stroke-width:0.07874015748031496;"/>
        </g>
        <!-- Rotated Dimension -->
        <g>
            <path d="M25,0 L24.58371534222716,2.5 L25.41628465777284,2.5 Z" style="stroke:#a0a0a4;stroke-width:0.07874015748031496;fill:#a0a0a4;fill-rule:evenodd;"/>
            <path d="M25,24 L25.41628465777284,21.5 L24.58371534222716,21.5 Z" style="stroke:#a0a0a4;stroke-width:0.07874015748031496;fill:#a0a0a4;fill-rule:evenodd;"/>
            <g>
                <path d="M24.375,11.444444444444445 L24.375,10.333333333333334 L22.52861111111111,11.406944444444445 M22.52889442961951,11.406743000542695 L22.528941976160773,11.406767769380721 C22.487873529850688,11.43072413379437 22.440122373385996,11.444444444444445 22.389166666666668,11.444444444444445 C22.354848801886448,11.444444444444445 22.321984460230617,11.43822117215379 22.29168721053718,11.42685907297294 M22.291643310262288,11.426797211390246 L22.291516776295673,11.426903414404414 C22.051906045731688,11.365090327520285 21.875,11.147648918636959 21.875,10.88888888888889 C21.875,10.630143936242833 22.05188543085701,10.412712789599555 22.291183128117485,10.3509604495053" style="stroke:#a0a0a4;stroke-width:0.07874015748031496;"/>
                <path d="M24.375,13.25 L23.26388888888889,13.25 M23.819444444444443,13.666666666666666 L23.819444444444443,12.277777777777779 L21.875,12.833333333333332" style="stroke:#a0a0a4;stroke-width:0.07874015748031496;"/>
            </g>
            <path d="M25,0 L25,24 M11.125,0 L26.25,0 M24.625,24 L26.25,24 " style="stroke:#a0a0a4;stroke-width:0.07874015748031496;"/>
        </g>
        <!-- Rotated Dimension -->
        <g>
            <path d="M30.000000000000004,0 L29.583715342227162,2.5 L30.416284657772845,2.5 Z" style="stroke:#a0a0a4;stroke-width:0.07874015748031496;fill:#a0a0a4;fill-rule:evenodd;"/>
            <path d="M30.000000000000004,36 L30.416284657772845,33.5 L29.583715342227162,33.5 Z" style="stroke:#a0a0a4;stroke-width:0.07874015748031496;fill:#a0a0a4;fill-rule:evenodd;"/>
            <g>
                <path d="M26.87512307371405,16.47222222222222 L26.87512307371405,17.02777777777778 M27.98623418482516,17.02777777777778 C27.98623418482516,17.334602638777778 27.737503490269606,17.583333333333332 27.430678629269607,17.583333333333332 C27.123853768269605,17.583333333333332 26.87512307371405,17.334602638777778 26.87512307371405,17.02777777777778 M27.98623418482516,17.02777777777778 L27.98623418482516,16.75 M28.541789740380718,17.583333333333332 C28.234964879380716,17.583333333333332 27.98623418482516,17.334602638777778 27.98623418482516,17.02777777777778 M28.541789740380718,17.583333333333332 L28.819567518158493,17.583333333333332 M29.37512307371405,17.02777777777778 C29.37512307371405,17.334602638777778 29.126392379158496,17.583333333333332 28.819567518158493,17.583333333333332 M29.37512307371405,17.02777777777778 L29.37512307371405,16.47222222222222" style="stroke:#a0a0a4;stroke-width:0.07874015748031496;"/>
                <path d="M26.875080734073318,19.25 L26.87487692628596,19.249798015795793 C27.163145457275135,18.751700985898978 27.701675203145662,18.416666666666668 28.318456407047385,18.416666666666668 L28.819567518158493,18.416666666666668 C29.126392379158496,18.416666666666668 29.37512307371405,18.665397361222222 29.37512307371405,18.97222222222222 C29.37512307371405,19.27904708322222 29.126392379158496,19.52777777777778 28.819567518158493,19.52777777777778 L28.541789740380718,19.52777777777778 C28.234964879380716,19.52777777777778 27.98623418482516,19.27904708322222 27.98623418482516,18.97222222222222 L27.98623418482516,18.450111111111113" style="stroke:#a0a0a4;stroke-width:0.07874015748031496;"/>
            </g>
            <path d="M30.000000000000004,0 L30.000000000000004,36 M11.125,0 L31.250000000000004,0 M12.625,36 L31.250000000000004,36 " style="stroke:#a0a0a4;stroke-width:0.07874015748031496;"/>
        </g>
        <!-- Rotated Dimension -->
        <g>
            <path d="M-4,4.5 L-4.41628465777284,7 L-3.583715342227159,7 Z" style="stroke:#a0a0a4;stroke-width:0.07874015748031496;fill:#a0a0a4;fill-rule:evenodd;"/>
            <path d="M-4,0 L-3.5837153422271597,-2.5 L-4.416284657772841,-2.5 Z" style="stroke:#a0a0a4;stroke-width:0.07874015748031496;fill:#a0a0a4;fill-rule:evenodd;"/>
            <g>
                <path d="M-4.75,5.888888888888889 L-5.861111111111111,5.888888888888889 M-5.305555555555555,6.305555555555555 L-5.305555555555555,4.916666666666667 L-7.25,5.472222222222222" style="stroke:#a0a0a4;stroke-width:0.07874015748031496;"/>
                <path d="M-4.75,7.138888888888889 L-4.888888888888889,7.138888888888889" style="stroke:#a0a0a4;stroke-width:0.07874015748031496;"/>
                <path d="M-7.25,9.083333333333332 L-7.25,7.972222222222222 L-6.138888888888889,7.972222222222222 L-6.138888888888889,8.527777777777779 M-5.583333333333333,9.083333333333332 C-5.890158194333333,9.083333333333332 -6.138888888888889,8.834602638777778 -6.138888888888889,8.527777777777779 M-5.583333333333333,9.083333333333332 L-5.305555555555555,9.083333333333332 M-4.75,8.527777777777779 C-4.75,8.834602638777778 -4.998730694555555,9.083333333333332 -5.305555555555555,9.083333333333332 M-4.75,8.527777777777779 L-4.75,7.972222222222222" style="stroke:#a0a0a4;stroke-width:0.07874015748031496;"/>
            </g>
            <path d="M-3.9999999999999996,9.5 L-4,-5 M-0.6250000000000006,4.5 L-5.25,4.5 M-0.625,7.654042494670958e-17 L-5.25,1.5308084989341916e-16 " style="stroke:#a0a0a4;stroke-width:0.07874015748031496;"/>
        </g>
        <!-- Rotated Dimension -->
        <g>
            <path d="M-3.9999999999999996,32.25 L-3.5837153422271593,29.75 L-4.41628465777284,29.75 Z" style="stroke:#a0a0a4;stroke-width:0.07874015748031496;fill:#a0a0a4;fill-rule:evenodd;"/>
            <path d="M-3.9999999999999996,36 L-4.41628465777284,38.5 L-3.5837153422271584,38.5 Z" style="stroke:#a0a0a4;stroke-width:0.07874015748031496;fill:#a0a0a4;fill-rule:evenodd;"/>
            <g>
                <path d="M-7.125,36.625 L-7.125,37.18055555555556 M-6.013888888888889,37.18055555555556 C-6.013888888888889,37.48738041655555 -6.262619583444444,37.73611111111111 -6.569444444444445,37.73611111111111 C-6.876269305444445,37.73611111111111 -7.125,37.48738041655555 -7.125,37.18055555555556 M-6.013888888888889,37.18055555555556 L-6.013888888888889,36.90277777777778 M-5.458333333333333,37.73611111111111 C-5.765158194333333,37.73611111111111 -6.013888888888889,37.48738041655555 -6.013888888888889,37.18055555555556 M-5.458333333333333,37.73611111111111 L-5.180555555555555,37.73611111111111 M-4.625,37.18055555555556 C-4.625,37.48738041655555 -4.873730694555555,37.73611111111111 -5.180555555555555,37.73611111111111 M-4.625,37.18055555555556 L-4.625,36.625" style="stroke:#a0a0a4;stroke-width:0.07874015748031496;"/>
                <path d="M-4.625,38.56944444444444 L-4.763888888888889,38.56944444444444" style="stroke:#a0a0a4;stroke-width:0.07874015748031496;"/>
                <path d="M-7.125,39.40277777777778 L-7.125,40.513888888888886 L-4.625,39.81944444444444 M-6.013888888888889,39.95833333333333 L-6.013888888888889,40.513888888888886" style="stroke:#a0a0a4;stroke-width:0.07874015748031496;"/>
                <path d="M-7.125,42.45833333333333 L-7.125,41.34722222222222 L-6.013888888888889,41.34722222222222 L-6.013888888888889,41.90277777777777 M-5.458333333333333,42.45833333333333 C-5.765158194333333,42.45833333333333 -6.013888888888889,42.209602638777774 -6.013888888888889,41.90277777777777 M-5.458333333333333,42.45833333333333 L-5.180555555555555,42.45833333333333 M-4.625,41.90277777777777 C-4.625,42.209602638777774 -4.873730694555555,42.45833333333333 -5.180555555555555,42.45833333333333 M-4.625,41.90277777777777 L-4.625,41.34722222222222" style="stroke:#a0a0a4;stroke-width:0.07874015748031496;"/>
            </g>
            <path d="M-4.000000000000001,27.25 L-3.9999999999999987,41 M-0.625,32.25 L-5.25,32.25 M-0.6249999999999978,36 L-5.25,36 " style="stroke:#a0a0a4;stroke-width:0.07874015748031496;"/>
        </g>
        <!-- Block Reference: strappingtape / entities: 1 -->
        <g/>
        <!-- Block Reference: strappingtape / entities: 1 -->
        <g/>
        <!-- Block Reference: papertape2 / entities: 2 -->
        <g/>
        <!-- Block Reference: papertape2 / entities: 2 -->
        <g/>
        <!-- Block Reference: arrow / entities: 4 -->
        <g/>
        <!-- Block Reference: arrow / entities: 4 -->
        <g>
            <!-- Line -->
            <!-- Line -->
            <!-- Line -->
            <!-- Spline -->
        </g>
        <!-- Text: 3/4" paper tape -->
        <!-- Text: 3/8" strapping tape -->
    </g>
</svg>
